<mxfile host="app.diagrams.net" modified="2023-11-29T13:52:45.567Z" agent="Mozilla/5.0 (X11; Ubuntu; Linux x86_64; rv:120.0) Gecko/20100101 Firefox/120.0" etag="H1KIQ_lXrjvN6FuVaXWE" version="22.1.4" type="github">
  <diagram name="Page-1" id="2YBvvXClWsGukQMizWep">
    <mxGraphModel dx="1114" dy="615" grid="1" gridSize="10" guides="1" tooltips="1" connect="1" arrows="1" fold="1" page="1" pageScale="1" pageWidth="850" pageHeight="1100" math="0" shadow="0">
      <root>
        <mxCell id="0" />
        <mxCell id="1" parent="0" />
        <mxCell id="jrI9DgqT9XLrejT5Os2s-1" value="&lt;div&gt;:Aplikacija&lt;/div&gt;" style="shape=umlLifeline;perimeter=lifelinePerimeter;whiteSpace=wrap;html=1;container=0;dropTarget=0;collapsible=0;recursiveResize=0;outlineConnect=0;portConstraint=eastwest;newEdgeStyle={&quot;edgeStyle&quot;:&quot;elbowEdgeStyle&quot;,&quot;elbow&quot;:&quot;vertical&quot;,&quot;curved&quot;:0,&quot;rounded&quot;:0};" vertex="1" parent="1">
          <mxGeometry x="425" y="40" width="100" height="600" as="geometry" />
        </mxCell>
        <mxCell id="jrI9DgqT9XLrejT5Os2s-2" value="" style="html=1;points=[];perimeter=orthogonalPerimeter;outlineConnect=0;targetShapes=umlLifeline;portConstraint=eastwest;newEdgeStyle={&quot;edgeStyle&quot;:&quot;elbowEdgeStyle&quot;,&quot;elbow&quot;:&quot;vertical&quot;,&quot;curved&quot;:0,&quot;rounded&quot;:0};" vertex="1" parent="jrI9DgqT9XLrejT5Os2s-1">
          <mxGeometry x="45" y="40" width="10" height="560" as="geometry" />
        </mxCell>
        <mxCell id="jrI9DgqT9XLrejT5Os2s-7" value="&lt;div&gt;Igra훾&lt;/div&gt;&lt;div&gt;&lt;br&gt;&lt;/div&gt;" style="shape=umlActor;verticalLabelPosition=bottom;verticalAlign=top;html=1;outlineConnect=0;" vertex="1" parent="1">
          <mxGeometry x="50" y="40" width="30" height="60" as="geometry" />
        </mxCell>
        <mxCell id="jrI9DgqT9XLrejT5Os2s-8" value="" style="rounded=0;whiteSpace=wrap;html=1;rotation=90;" vertex="1" parent="1">
          <mxGeometry x="-189.05" y="376.56" width="508.12" height="10" as="geometry" />
        </mxCell>
        <mxCell id="jrI9DgqT9XLrejT5Os2s-9" value=":Glavni meni" style="shape=umlLifeline;perimeter=lifelinePerimeter;whiteSpace=wrap;html=1;container=0;dropTarget=0;collapsible=0;recursiveResize=0;outlineConnect=0;portConstraint=eastwest;newEdgeStyle={&quot;edgeStyle&quot;:&quot;elbowEdgeStyle&quot;,&quot;elbow&quot;:&quot;vertical&quot;,&quot;curved&quot;:0,&quot;rounded&quot;:0};" vertex="1" parent="1">
          <mxGeometry x="200" y="40" width="100" height="600" as="geometry" />
        </mxCell>
        <mxCell id="jrI9DgqT9XLrejT5Os2s-23" value="" style="html=1;points=[];perimeter=orthogonalPerimeter;outlineConnect=0;targetShapes=umlLifeline;portConstraint=eastwest;newEdgeStyle={&quot;edgeStyle&quot;:&quot;elbowEdgeStyle&quot;,&quot;elbow&quot;:&quot;vertical&quot;,&quot;curved&quot;:0,&quot;rounded&quot;:0};" vertex="1" parent="jrI9DgqT9XLrejT5Os2s-9">
          <mxGeometry x="45" y="400" width="10" height="80" as="geometry" />
        </mxCell>
        <mxCell id="jrI9DgqT9XLrejT5Os2s-25" value="" style="html=1;points=[];perimeter=orthogonalPerimeter;outlineConnect=0;targetShapes=umlLifeline;portConstraint=eastwest;newEdgeStyle={&quot;edgeStyle&quot;:&quot;elbowEdgeStyle&quot;,&quot;elbow&quot;:&quot;vertical&quot;,&quot;curved&quot;:0,&quot;rounded&quot;:0};" vertex="1" parent="jrI9DgqT9XLrejT5Os2s-9">
          <mxGeometry x="45" y="90" width="10" height="80" as="geometry" />
        </mxCell>
        <mxCell id="jrI9DgqT9XLrejT5Os2s-13" value=":Prikaz rezultata" style="shape=umlLifeline;perimeter=lifelinePerimeter;whiteSpace=wrap;html=1;container=0;dropTarget=0;collapsible=0;recursiveResize=0;outlineConnect=0;portConstraint=eastwest;newEdgeStyle={&quot;edgeStyle&quot;:&quot;elbowEdgeStyle&quot;,&quot;elbow&quot;:&quot;vertical&quot;,&quot;curved&quot;:0,&quot;rounded&quot;:0};" vertex="1" parent="1">
          <mxGeometry x="640" y="40" width="100" height="600" as="geometry" />
        </mxCell>
        <mxCell id="jrI9DgqT9XLrejT5Os2s-14" value="" style="html=1;points=[];perimeter=orthogonalPerimeter;outlineConnect=0;targetShapes=umlLifeline;portConstraint=eastwest;newEdgeStyle={&quot;edgeStyle&quot;:&quot;elbowEdgeStyle&quot;,&quot;elbow&quot;:&quot;vertical&quot;,&quot;curved&quot;:0,&quot;rounded&quot;:0};" vertex="1" parent="jrI9DgqT9XLrejT5Os2s-13">
          <mxGeometry x="45" y="130" width="10" height="240" as="geometry" />
        </mxCell>
        <mxCell id="jrI9DgqT9XLrejT5Os2s-15" value="&lt;div&gt;1. Prika탑i rezultate&lt;/div&gt;" style="html=1;verticalAlign=bottom;endArrow=block;edgeStyle=elbowEdgeStyle;elbow=vertical;curved=0;rounded=0;" edge="1" parent="1" target="jrI9DgqT9XLrejT5Os2s-9">
          <mxGeometry relative="1" as="geometry">
            <mxPoint x="70" y="130" as="sourcePoint" />
            <Array as="points">
              <mxPoint x="155" y="130" />
            </Array>
            <mxPoint x="279.5" y="130" as="targetPoint" />
            <mxPoint as="offset" />
          </mxGeometry>
        </mxCell>
        <mxCell id="jrI9DgqT9XLrejT5Os2s-19" value="4. Prikazivanje rezultata" style="html=1;verticalAlign=bottom;endArrow=open;dashed=1;endSize=8;edgeStyle=elbowEdgeStyle;elbow=vertical;curved=0;rounded=0;entryX=0.459;entryY=0.001;entryDx=0;entryDy=0;entryPerimeter=0;" edge="1" parent="1" source="jrI9DgqT9XLrejT5Os2s-14">
          <mxGeometry relative="1" as="geometry">
            <mxPoint x="70" y="290.7270799999999" as="targetPoint" />
            <Array as="points">
              <mxPoint x="385" y="290" />
            </Array>
            <mxPoint x="680" y="290" as="sourcePoint" />
          </mxGeometry>
        </mxCell>
        <mxCell id="jrI9DgqT9XLrejT5Os2s-21" value="5. Igra훾 bira dugme nazad na meni" style="html=1;verticalAlign=bottom;endArrow=block;edgeStyle=elbowEdgeStyle;elbow=vertical;curved=0;rounded=0;" edge="1" parent="1" target="jrI9DgqT9XLrejT5Os2s-13">
          <mxGeometry relative="1" as="geometry">
            <mxPoint x="70" y="360.02" as="sourcePoint" />
            <Array as="points" />
            <mxPoint x="630" y="360" as="targetPoint" />
            <mxPoint as="offset" />
          </mxGeometry>
        </mxCell>
        <mxCell id="jrI9DgqT9XLrejT5Os2s-22" value="7. Povratak na meni" style="html=1;verticalAlign=bottom;endArrow=block;edgeStyle=elbowEdgeStyle;elbow=vertical;curved=0;rounded=0;exitX=0;exitY=0.643;exitDx=0;exitDy=0;exitPerimeter=0;" edge="1" parent="1" source="jrI9DgqT9XLrejT5Os2s-2" target="jrI9DgqT9XLrejT5Os2s-9">
          <mxGeometry relative="1" as="geometry">
            <mxPoint x="465" y="440" as="sourcePoint" />
            <Array as="points">
              <mxPoint x="390" y="440" />
            </Array>
            <mxPoint x="300" y="440" as="targetPoint" />
          </mxGeometry>
        </mxCell>
        <mxCell id="jrI9DgqT9XLrejT5Os2s-26" value="&lt;div&gt;2. Prika탑i tabelu rezultata&lt;br&gt;&lt;/div&gt;" style="html=1;verticalAlign=bottom;endArrow=block;edgeStyle=elbowEdgeStyle;elbow=vertical;curved=0;rounded=0;" edge="1" parent="1" source="jrI9DgqT9XLrejT5Os2s-25">
          <mxGeometry relative="1" as="geometry">
            <mxPoint x="260" y="160" as="sourcePoint" />
            <Array as="points">
              <mxPoint x="335" y="160" />
            </Array>
            <mxPoint x="470" y="160" as="targetPoint" />
            <mxPoint as="offset" />
          </mxGeometry>
        </mxCell>
        <mxCell id="jrI9DgqT9XLrejT5Os2s-27" value="3. Otvori pozor sa rezultatima" style="html=1;verticalAlign=bottom;endArrow=block;edgeStyle=elbowEdgeStyle;elbow=vertical;curved=0;rounded=0;" edge="1" parent="1" target="jrI9DgqT9XLrejT5Os2s-14">
          <mxGeometry relative="1" as="geometry">
            <mxPoint x="480" y="170" as="sourcePoint" />
            <Array as="points">
              <mxPoint x="565" y="170" />
            </Array>
            <mxPoint x="680" y="170" as="targetPoint" />
            <mxPoint as="offset" />
          </mxGeometry>
        </mxCell>
        <mxCell id="jrI9DgqT9XLrejT5Os2s-28" value="6.Zatvaranje prozora" style="html=1;verticalAlign=bottom;endArrow=block;edgeStyle=elbowEdgeStyle;elbow=vertical;curved=0;rounded=0;exitX=0;exitY=0.643;exitDx=0;exitDy=0;exitPerimeter=0;" edge="1" parent="1">
          <mxGeometry relative="1" as="geometry">
            <mxPoint x="690" y="410" as="sourcePoint" />
            <Array as="points">
              <mxPoint x="610" y="410" />
            </Array>
            <mxPoint x="480" y="410" as="targetPoint" />
          </mxGeometry>
        </mxCell>
        <mxCell id="jrI9DgqT9XLrejT5Os2s-30" value="8. Prikaz glavnog menija" style="html=1;verticalAlign=bottom;endArrow=block;edgeStyle=elbowEdgeStyle;elbow=vertical;curved=0;rounded=0;exitX=0;exitY=0.643;exitDx=0;exitDy=0;exitPerimeter=0;" edge="1" parent="1">
          <mxGeometry relative="1" as="geometry">
            <mxPoint x="250" y="520" as="sourcePoint" />
            <Array as="points">
              <mxPoint x="170" y="520" />
            </Array>
            <mxPoint x="70" y="520" as="targetPoint" />
          </mxGeometry>
        </mxCell>
      </root>
    </mxGraphModel>
  </diagram>
</mxfile>
